<svg xmlns="http://www.w3.org/2000/svg" viewBox="0 0 800 600" width="800" height="600"><defs><linearGradient id="f" x1="0" y1="0" x2=".6" y2="1"><stop offset="0" stop-color="#26315f"/><stop offset="1" stop-color="#0b1029"/></linearGradient><radialGradient id="halo" cx="50%" cy="40%" r="60%"><stop offset="0" stop-color="#467ff7" stop-opacity=".28"/><stop offset="1" stop-color="#467ff7" stop-opacity="0"/></radialGradient><pattern id="rej" width="56" height="56" patternUnits="userSpaceOnUse"><path d="M56 0H0V56" fill="none" stroke="#467ff7" stroke-opacity=".10"/></pattern><linearGradient id="suelo" x1="0" y1="0" x2="1" y2="0"><stop offset="0" stop-color="#467ff7" stop-opacity="0"/><stop offset=".5" stop-color="#467ff7" stop-opacity=".5"/><stop offset="1" stop-color="#467ff7" stop-opacity="0"/></linearGradient></defs><rect width="800" height="600" fill="url(#f)"/><rect width="800" height="600" fill="url(#rej)"/><rect width="800" height="600" fill="url(#halo)"/><rect x="0" y="0" width="800" height="5" fill="#467ff7"/><rect x="560" y="90" width="56" height="56" rx="12" fill="#eaeff8" opacity="0.14"/><rect x="630" y="90" width="56" height="56" rx="12" fill="#eaeff8" opacity="0.19"/><rect x="700" y="90" width="56" height="56" rx="12" fill="#eaeff8" opacity="0.24000000000000002"/><rect x="560" y="160" width="56" height="56" rx="12" fill="#eaeff8" opacity="0.29000000000000004"/><rect x="630" y="160" width="56" height="56" rx="12" fill="#eaeff8" opacity="0.14"/><rect x="700" y="160" width="56" height="56" rx="12" fill="#eaeff8" opacity="0.19"/><rect x="177.5" y="476" width="445" height="3" fill="url(#suelo)"/><ellipse cx="400" cy="481" rx="133.5" ry="10" fill="#000" opacity=".22"/><g opacity="1.0"><path d="M328.8571428571429 358.8392857142857 h142.28571428571428 l-20.75 88.92857142857143 h-100.78571428571429 z" fill="#eaeff8" opacity=".75"/><circle cx="357.0178571428571" cy="452.2142857142857" r="22.232142857142858" fill="#1c244b" stroke="#eaeff8" stroke-width="5.1875"/><circle cx="357.0178571428571" cy="452.2142857142857" r="6.669642857142858" fill="#467ff7"/><circle cx="442.9821428571429" cy="452.2142857142857" r="22.232142857142858" fill="#1c244b" stroke="#eaeff8" stroke-width="5.1875"/><circle cx="442.9821428571429" cy="452.2142857142857" r="6.669642857142858" fill="#467ff7"/><rect x="337.75" y="170.60714285714283" width="124.5" height="148.21428571428572" rx="34.089285714285715" fill="#eaeff8"/><circle cx="400" cy="237.30357142857142" r="25.196428571428573" fill="#1c244b" opacity=".85"/><circle cx="400" cy="237.30357142857142" r="13.339285714285715" fill="#467ff7"/><circle cx="400" cy="261.0178571428571" r="22.232142857142858" fill="#1c244b"/><circle cx="400" cy="261.0178571428571" r="11.116071428571429" fill="#467ff7"/><circle cx="324.4107142857143" cy="192.83928571428572" r="22.232142857142858" fill="#eaeff8"/><rect x="312.55357142857144" y="201.73214285714283" width="23.714285714285715" height="111.16071428571429" rx="11.857142857142858" fill="#eaeff8" opacity=".88"/><circle cx="324.4107142857143" cy="311.4107142857143" r="14.821428571428573" fill="#eaeff8" opacity=".95"/><circle cx="475.5892857142857" cy="192.83928571428572" r="22.232142857142858" fill="#eaeff8"/><rect x="463.7321428571429" y="201.73214285714283" width="23.714285714285715" height="111.16071428571429" rx="11.857142857142858" fill="#eaeff8" opacity=".88"/><circle cx="475.5892857142857" cy="311.4107142857143" r="14.821428571428573" fill="#eaeff8" opacity=".95"/><rect x="386.6607142857143" y="152.82142857142856" width="26.67857142857143" height="20.75" fill="#eaeff8" opacity=".7"/><rect x="352.57142857142856" y="71.30357142857139" width="94.85714285714286" height="84.48214285714286" rx="22.232142857142858" fill="#eaeff8"/><rect x="397.0357142857143" y="29.803571428571388" width="5.928571428571429" height="41.5" fill="#eaeff8" opacity=".8"/><circle cx="400" cy="25.357142857142833" r="8.892857142857142" fill="#467ff7"/><rect x="367.3928571428571" y="99.46428571428572" width="65.21428571428572" height="17.785714285714285" rx="8.892857142857142" fill="#1c244b"/><circle cx="385.17857142857144" cy="108.35714285714283" r="5.928571428571429" fill="#467ff7"/><circle cx="414.82142857142856" cy="108.35714285714283" r="5.928571428571429" fill="#467ff7"/></g><rect x="0" y="504" width="800" height="96" fill="#0a0f26" opacity=".55"/><text x="400.0" y="562" text-anchor="middle" font-family="system-ui,-apple-system,Segoe UI,Roboto,Helvetica,Arial,sans-serif" font-size="34" font-weight="700" fill="#ffffff" letter-spacing="-1">1X Technologies NEO</text></svg>