<svg xmlns="http://www.w3.org/2000/svg" viewBox="0 0 800 600" width="800" height="600"><defs><linearGradient id="f" x1="0" y1="0" x2=".6" y2="1"><stop offset="0" stop-color="#3a2c52"/><stop offset="1" stop-color="#100a1e"/></linearGradient><radialGradient id="halo" cx="50%" cy="40%" r="60%"><stop offset="0" stop-color="#8b5cf6" stop-opacity=".28"/><stop offset="1" stop-color="#8b5cf6" stop-opacity="0"/></radialGradient><pattern id="rej" width="56" height="56" patternUnits="userSpaceOnUse"><path d="M56 0H0V56" fill="none" stroke="#8b5cf6" stroke-opacity=".10"/></pattern><linearGradient id="suelo" x1="0" y1="0" x2="1" y2="0"><stop offset="0" stop-color="#8b5cf6" stop-opacity="0"/><stop offset=".5" stop-color="#8b5cf6" stop-opacity=".5"/><stop offset="1" stop-color="#8b5cf6" stop-opacity="0"/></linearGradient></defs><rect width="800" height="600" fill="url(#f)"/><rect width="800" height="600" fill="url(#rej)"/><rect width="800" height="600" fill="url(#halo)"/><rect x="0" y="0" width="800" height="5" fill="#8b5cf6"/><rect x="560" y="90" width="56" height="56" rx="12" fill="#eaeff8" opacity="0.14"/><rect x="630" y="90" width="56" height="56" rx="12" fill="#eaeff8" opacity="0.19"/><rect x="700" y="90" width="56" height="56" rx="12" fill="#eaeff8" opacity="0.24000000000000002"/><rect x="560" y="160" width="56" height="56" rx="12" fill="#eaeff8" opacity="0.29000000000000004"/><rect x="630" y="160" width="56" height="56" rx="12" fill="#eaeff8" opacity="0.14"/><rect x="700" y="160" width="56" height="56" rx="12" fill="#eaeff8" opacity="0.19"/><rect x="187.5" y="476" width="425" height="3" fill="url(#suelo)"/><ellipse cx="400" cy="481" rx="127.5" ry="10" fill="#000" opacity=".22"/><g opacity="1.0"><rect x="369.48571428571427" y="345.4" width="21.614285714285714" height="124.6" rx="10.807142857142857" fill="#eaeff8" opacity=".82"/><circle cx="380.29285714285714" cy="345.4" r="13.35" fill="#eaeff8" opacity=".9"/><rect x="408.9" y="345.4" width="21.614285714285714" height="124.6" rx="10.807142857142857" fill="#eaeff8" opacity=".82"/><circle cx="419.70714285714286" cy="345.4" r="13.35" fill="#eaeff8" opacity=".9"/><rect x="346.6" y="222.07142857142858" width="106.8" height="127.14285714285714" rx="29.24285714285714" fill="#eaeff8"/><circle cx="400" cy="279.28571428571433" r="21.614285714285714" fill="#1c244b" opacity=".85"/><circle cx="400" cy="279.28571428571433" r="11.442857142857143" fill="#8b5cf6"/><circle cx="400" cy="299.62857142857143" r="19.07142857142857" fill="#1c244b"/><circle cx="400" cy="299.62857142857143" r="9.535714285714285" fill="#8b5cf6"/><circle cx="335.15714285714284" cy="241.14285714285717" r="19.07142857142857" fill="#eaeff8"/><rect x="324.98571428571427" y="248.77142857142857" width="20.34285714285714" height="95.35714285714285" rx="10.17142857142857" fill="#eaeff8" opacity=".88"/><circle cx="335.15714285714284" cy="342.8571428571429" r="12.714285714285714" fill="#eaeff8" opacity=".95"/><circle cx="464.84285714285716" cy="241.14285714285717" r="19.07142857142857" fill="#eaeff8"/><rect x="454.6714285714286" y="248.77142857142857" width="20.34285714285714" height="95.35714285714285" rx="10.17142857142857" fill="#eaeff8" opacity=".88"/><circle cx="464.84285714285716" cy="342.8571428571429" r="12.714285714285714" fill="#eaeff8" opacity=".95"/><rect x="388.5571428571429" y="206.81428571428575" width="22.885714285714286" height="17.799999999999997" fill="#eaeff8" opacity=".7"/><rect x="359.3142857142857" y="136.8857142857143" width="81.37142857142857" height="72.47142857142856" rx="19.07142857142857" fill="#eaeff8"/><rect x="397.45714285714286" y="101.28571428571433" width="5.085714285714285" height="35.599999999999994" fill="#eaeff8" opacity=".8"/><circle cx="400" cy="97.47142857142859" r="7.628571428571428" fill="#8b5cf6"/><circle cx="400" cy="169.94285714285718" r="13.985714285714284" fill="#1c244b"/><circle cx="400" cy="169.94285714285718" r="6.992857142857142" fill="#8b5cf6"/></g><rect x="0" y="504" width="800" height="96" fill="#0a0f26" opacity=".55"/><text x="400.0" y="562" text-anchor="middle" font-family="system-ui,-apple-system,Segoe UI,Roboto,Helvetica,Arial,sans-serif" font-size="34" font-weight="700" fill="#ffffff" letter-spacing="-1">Unitree G1</text></svg>