<svg xmlns="http://www.w3.org/2000/svg" viewBox="0 0 800 600" width="800" height="600"><defs><linearGradient id="f" x1="0" y1="0" x2=".6" y2="1"><stop offset="0" stop-color="#26315f"/><stop offset="1" stop-color="#0b1029"/></linearGradient><radialGradient id="halo" cx="50%" cy="40%" r="60%"><stop offset="0" stop-color="#22d3ee" stop-opacity=".28"/><stop offset="1" stop-color="#22d3ee" stop-opacity="0"/></radialGradient><pattern id="rej" width="56" height="56" patternUnits="userSpaceOnUse"><path d="M56 0H0V56" fill="none" stroke="#22d3ee" stroke-opacity=".10"/></pattern><linearGradient id="suelo" x1="0" y1="0" x2="1" y2="0"><stop offset="0" stop-color="#22d3ee" stop-opacity="0"/><stop offset=".5" stop-color="#22d3ee" stop-opacity=".5"/><stop offset="1" stop-color="#22d3ee" stop-opacity="0"/></linearGradient></defs><rect width="800" height="600" fill="url(#f)"/><rect width="800" height="600" fill="url(#rej)"/><rect width="800" height="600" fill="url(#halo)"/><rect x="0" y="0" width="800" height="5" fill="#22d3ee"/><rect x="566" y="96" width="190" height="140" rx="12" fill="#080c26" stroke="#22d3ee" stroke-width="3"/><path d="M588 206 h56 v-38 h42 v-28 h46" fill="none" stroke="#eaeff8" stroke-width="4" opacity=".8"/><circle cx="604" cy="128" r="15" fill="none" stroke="#22d3ee" stroke-width="4"/><rect x="181.0" y="476" width="438" height="3" fill="url(#suelo)"/><ellipse cx="400" cy="481" rx="131.4" ry="10" fill="#000" opacity=".22"/><g opacity="1.0"><rect x="320.05357142857144" y="419.125" width="159.89285714285714" height="43.607142857142854" rx="21.803571428571427" fill="#1c244b" stroke="#eaeff8" stroke-width="4.360714285714286"/><circle cx="336.04285714285714" cy="440.92857142857144" r="10.174999999999999" fill="#eaeff8" opacity=".6"/><circle cx="368.0214285714286" cy="440.92857142857144" r="10.174999999999999" fill="#eaeff8" opacity=".6"/><circle cx="400.0" cy="440.92857142857144" r="10.174999999999999" fill="#eaeff8" opacity=".6"/><circle cx="431.9785714285714" cy="440.92857142857144" r="10.174999999999999" fill="#eaeff8" opacity=".6"/><circle cx="463.95714285714286" cy="440.92857142857144" r="10.174999999999999" fill="#eaeff8" opacity=".6"/><path d="M334.5892857142857 360.9821428571429 h130.82142857142856 l-17.442857142857143 65.41071428571428 h-95.93571428571428 z" fill="#eaeff8" opacity=".75"/><rect x="338.95" y="179.28571428571428" width="122.1" height="145.35714285714286" rx="33.43214285714286" fill="#eaeff8"/><rect x="362.20714285714286" y="196.7285714285714" width="75.58571428571429" height="40.699999999999996" rx="10.174999999999999" fill="#1c244b" opacity=".30"/><rect x="370.92857142857144" y="206.9035714285714" width="11.628571428571428" height="20.349999999999998" rx="2.907142857142857" fill="#22d3ee" opacity=".8"/><rect x="392.7321428571429" y="206.9035714285714" width="11.628571428571428" height="20.349999999999998" rx="2.907142857142857" fill="#22d3ee" opacity=".8"/><rect x="414.5357142857143" y="206.9035714285714" width="11.628571428571428" height="20.349999999999998" rx="2.907142857142857" fill="#22d3ee" opacity=".8"/><circle cx="400" cy="267.9535714285714" r="21.803571428571427" fill="#1c244b"/><circle cx="400" cy="267.9535714285714" r="10.901785714285714" fill="#22d3ee"/><circle cx="325.86785714285713" cy="201.08928571428572" r="21.803571428571427" fill="#eaeff8"/><rect x="314.2392857142857" y="209.81071428571428" width="23.257142857142856" height="109.01785714285714" rx="11.628571428571428" fill="#eaeff8" opacity=".88"/><circle cx="325.86785714285713" cy="317.375" r="14.535714285714285" fill="#eaeff8" opacity=".95"/><circle cx="474.13214285714287" cy="201.08928571428572" r="21.803571428571427" fill="#eaeff8"/><rect x="462.50357142857143" y="209.81071428571428" width="23.257142857142856" height="109.01785714285714" rx="11.628571428571428" fill="#eaeff8" opacity=".88"/><circle cx="474.13214285714287" cy="317.375" r="14.535714285714285" fill="#eaeff8" opacity=".95"/><rect x="386.91785714285714" y="161.84285714285716" width="26.164285714285715" height="20.349999999999998" fill="#eaeff8" opacity=".7"/><rect x="352.03214285714284" y="77.53571428571428" width="95.93571428571428" height="87.21428571428571" rx="31.978571428571428" fill="#eaeff8"/><circle cx="381.1035714285714" cy="119.68928571428569" r="11.628571428571428" fill="#1c244b"/><circle cx="381.1035714285714" cy="119.68928571428569" r="5.814285714285714" fill="#22d3ee"/><circle cx="418.8964285714286" cy="119.68928571428569" r="11.628571428571428" fill="#1c244b"/><circle cx="418.8964285714286" cy="119.68928571428569" r="5.814285714285714" fill="#22d3ee"/></g><rect x="0" y="504" width="800" height="96" fill="#0a0f26" opacity=".55"/><text x="400.0" y="544" text-anchor="middle" font-family="system-ui,-apple-system,Segoe UI,Roboto,Helvetica,Arial,sans-serif" font-size="30" font-weight="700" fill="#ffffff" letter-spacing="-1">Visión Artificial</text><text x="400.0" y="578" text-anchor="middle" font-family="system-ui,-apple-system,Segoe UI,Roboto,Helvetica,Arial,sans-serif" font-size="30" font-weight="700" fill="#ffffff" letter-spacing="-1">y Percepción</text></svg>