<svg xmlns="http://www.w3.org/2000/svg" viewBox="0 0 800 600" width="800" height="600"><defs><linearGradient id="f" x1="0" y1="0" x2=".6" y2="1"><stop offset="0" stop-color="#123a4a"/><stop offset="1" stop-color="#05141b"/></linearGradient><radialGradient id="halo" cx="50%" cy="40%" r="60%"><stop offset="0" stop-color="#a3e635" stop-opacity=".28"/><stop offset="1" stop-color="#a3e635" stop-opacity="0"/></radialGradient><pattern id="rej" width="56" height="56" patternUnits="userSpaceOnUse"><path d="M56 0H0V56" fill="none" stroke="#a3e635" stroke-opacity=".10"/></pattern><linearGradient id="suelo" x1="0" y1="0" x2="1" y2="0"><stop offset="0" stop-color="#a3e635" stop-opacity="0"/><stop offset=".5" stop-color="#a3e635" stop-opacity=".5"/><stop offset="1" stop-color="#a3e635" stop-opacity="0"/></linearGradient></defs><rect width="800" height="600" fill="url(#f)"/><rect width="800" height="600" fill="url(#rej)"/><rect width="800" height="600" fill="url(#halo)"/><rect x="0" y="0" width="800" height="5" fill="#a3e635"/><polygon points="709.3,144.3 721.8,145.5 721.8,154.5 709.3,155.7 705.5,169.7 715.8,177.0 711.3,184.8 699.8,179.6 689.6,189.8 694.8,201.3 687.0,205.8 679.7,195.5 665.7,199.3 664.5,211.8 655.5,211.8 654.3,199.3 640.3,195.5 633.0,205.8 625.2,201.3 630.4,189.8 620.2,179.6 608.7,184.8 604.2,177.0 614.5,169.7 610.7,155.7 598.2,154.5 598.2,145.5 610.7,144.3 614.5,130.3 604.2,123.0 608.7,115.2 620.2,120.4 630.4,110.2 625.2,98.7 633.0,94.2 640.3,104.5 654.3,100.7 655.5,88.2 664.5,88.2 665.7,100.7 679.7,104.5 687.0,94.2 694.8,98.7 689.6,110.2 699.8,120.4 711.3,115.2 715.8,123.0 705.5,130.3" fill="#a3e635" opacity="0.85"/><circle cx="660" cy="150" r="21.1" fill="#0e1433"/><circle cx="660" cy="150" r="10.5" fill="#a3e635" opacity=".7"/><polygon points="755.1,227.8 762.9,228.7 762.9,235.3 755.1,236.2 751.8,246.3 757.6,251.5 753.7,257.0 746.9,253.1 738.3,259.3 739.9,267.0 733.5,269.0 730.3,261.9 719.7,261.9 716.5,269.0 710.1,267.0 711.7,259.3 703.1,253.1 696.3,257.0 692.4,251.5 698.2,246.3 694.9,236.2 687.1,235.3 687.1,228.7 694.9,227.8 698.2,217.7 692.4,212.5 696.3,207.0 703.1,210.9 711.7,204.7 710.1,197.0 716.5,195.0 719.7,202.1 730.3,202.1 733.5,195.0 739.9,197.0 738.3,204.7 746.9,210.9 753.7,207.0 757.6,212.5 751.8,217.7" fill="#eaeff8" opacity="0.5"/><circle cx="725" cy="232" r="12.9" fill="#0e1433"/><circle cx="725" cy="232" r="6.5" fill="#eaeff8" opacity=".7"/><rect x="188.5" y="476" width="423" height="3" fill="url(#suelo)"/><ellipse cx="400" cy="481" rx="126.89999999999999" ry="10" fill="#000" opacity=".22"/><g opacity="1.0"><rect x="368.8" y="342.6" width="22.1" height="127.4" rx="11.05" fill="#eaeff8" opacity=".82"/><circle cx="379.85" cy="342.6" r="13.65" fill="#eaeff8" opacity=".9"/><rect x="409.09999999999997" y="342.6" width="22.1" height="127.4" rx="11.05" fill="#eaeff8" opacity=".82"/><circle cx="420.15" cy="342.6" r="13.65" fill="#eaeff8" opacity=".9"/><rect x="345.4" y="216.5" width="109.2" height="130.0" rx="29.900000000000002" fill="#eaeff8"/><rect x="366.2" y="232.1" width="67.60000000000001" height="36.4" rx="9.1" fill="#1c244b" opacity=".30"/><rect x="374.0" y="241.2" width="10.4" height="18.2" rx="2.6" fill="#a3e635" opacity=".8"/><rect x="393.5" y="241.2" width="10.4" height="18.2" rx="2.6" fill="#a3e635" opacity=".8"/><rect x="413.0" y="241.2" width="10.4" height="18.2" rx="2.6" fill="#a3e635" opacity=".8"/><circle cx="400" cy="295.79999999999995" r="19.5" fill="#1c244b"/><circle cx="400" cy="295.79999999999995" r="9.75" fill="#a3e635"/><circle cx="333.7" cy="236.0" r="19.5" fill="#eaeff8"/><rect x="323.3" y="243.79999999999998" width="20.8" height="97.5" rx="10.4" fill="#eaeff8" opacity=".88"/><circle cx="333.7" cy="340.0" r="13.0" fill="#eaeff8" opacity=".95"/><circle cx="466.3" cy="236.0" r="19.5" fill="#eaeff8"/><rect x="455.90000000000003" y="243.79999999999998" width="20.8" height="97.5" rx="10.4" fill="#eaeff8" opacity=".88"/><circle cx="466.3" cy="340.0" r="13.0" fill="#eaeff8" opacity=".95"/><rect x="388.3" y="200.89999999999998" width="23.400000000000002" height="18.2" fill="#eaeff8" opacity=".7"/><rect x="357.1" y="125.5" width="85.8" height="78.0" rx="28.6" fill="#eaeff8"/><circle cx="383.1" cy="163.2" r="10.4" fill="#1c244b"/><circle cx="383.1" cy="163.2" r="5.2" fill="#a3e635"/><circle cx="416.9" cy="163.2" r="10.4" fill="#1c244b"/><circle cx="416.9" cy="163.2" r="5.2" fill="#a3e635"/></g><rect x="0" y="504" width="800" height="96" fill="#0a0f26" opacity=".55"/><text x="400.0" y="562" text-anchor="middle" font-family="system-ui,-apple-system,Segoe UI,Roboto,Helvetica,Arial,sans-serif" font-size="34" font-weight="700" fill="#ffffff" letter-spacing="-1">Formación y Cursos</text></svg>